<svg width="22" height="22" viewBox="0 0 22 22" fill="none" xmlns="http://www.w3.org/2000/svg">
<path d="M15.1067 6.82006C15.3022 6.6245 15.5344 6.52672 15.8033 6.52672C16.0722 6.52672 16.3044 6.6245 16.5 6.82006C16.6956 7.01561 16.8056 7.26006 16.83 7.55339C16.8544 7.84672 16.7689 8.09117 16.5733 8.28672L11.0733 15.1067C10.8778 15.3512 10.6333 15.4734 10.34 15.4734C10.0467 15.4734 9.80222 15.3756 9.60667 15.1801L5.94 11.5134C5.64667 11.2689 5.54889 10.9389 5.64667 10.5234C5.74445 10.1078 5.98889 9.85117 6.38 9.75339C6.77111 9.65561 7.11333 9.75339 7.40667 10.0467L10.2667 12.9801L15.1067 6.82006Z" fill="#5A6F80"/>
</svg>
