<svg width="16" height="11" viewBox="0 0 16 11" fill="none" xmlns="http://www.w3.org/2000/svg">
<path d="M7.62667 3.09348C7.73333 3.02237 7.85778 2.98682 8 2.98682C8.14222 2.98682 8.26667 3.02237 8.37333 3.09348L10.3467 5.12015C10.4533 5.22682 10.5067 5.35126 10.5067 5.49348C10.5067 5.6357 10.4533 5.75126 10.3467 5.84015C10.24 5.92904 10.1244 5.97348 10 5.97348C9.87556 5.97348 9.76 5.92015 9.65333 5.81348L8.48 4.69348V8.48015C8.48 8.62237 8.43556 8.73793 8.34667 8.82682C8.25778 8.91571 8.14222 8.96015 8 8.96015C7.85778 8.96015 7.74222 8.91571 7.65333 8.82682C7.56444 8.73793 7.52 8.62237 7.52 8.48015V4.69348L6.34667 5.81348C6.24 5.92015 6.12444 5.97348 6 5.97348C5.87556 5.97348 5.76 5.92904 5.65333 5.84015C5.54667 5.75126 5.49333 5.6357 5.49333 5.49348C5.49333 5.35126 5.54667 5.22682 5.65333 5.12015L7.62667 3.09348ZM4.42667 1.33348C4.92444 0.906816 5.47556 0.577928 6.08 0.346816C6.68444 0.115705 7.32444 0.000149727 8 0.000149727C8.88889 0.000149727 9.71556 0.195705 10.48 0.586816C11.2444 0.977927 11.8667 1.52904 12.3467 2.24015C12.8267 2.95126 13.1022 3.7157 13.1733 4.53348C13.9556 4.6757 14.6222 5.04015 15.1733 5.62682C15.7244 6.21348 16 6.91571 16 7.73348C16 8.33793 15.8489 8.88904 15.5467 9.38682C15.2444 9.88459 14.8444 10.2757 14.3467 10.5601C13.8489 10.8446 13.2978 10.9868 12.6933 10.9868H3.78667C3.11111 10.9868 2.48 10.8179 1.89333 10.4801C1.30667 10.1424 0.844444 9.69793 0.506667 9.14682C0.168889 8.59571 0 7.98237 0 7.30682C0 6.41793 0.275556 5.64459 0.826667 4.98682C1.37778 4.32904 2.08 3.89348 2.93333 3.68015C3.00444 3.25348 3.17333 2.8357 3.44 2.42682C3.70667 2.01793 4.03556 1.65348 4.42667 1.33348ZM5.06667 2.08015C4.71111 2.40015 4.42667 2.73793 4.21333 3.09348C4 3.44904 3.89333 3.78682 3.89333 4.10682V4.58682L3.46667 4.64015C2.75556 4.71126 2.16889 5.00459 1.70667 5.52015C1.24444 6.03571 1.01333 6.64015 1.01333 7.33348C1.01333 8.02682 1.28 8.64015 1.81333 9.17348C2.34667 9.70682 3.00444 9.97348 3.78667 9.97348H12.6933C13.3333 9.97348 13.8756 9.75126 14.32 9.30682C14.7644 8.86237 14.9867 8.33793 14.9867 7.73348C14.9867 7.12904 14.7644 6.60459 14.32 6.16015C13.8756 5.71571 13.3333 5.49348 12.6933 5.49348H12.2133V5.01348C12.2133 4.30237 12.0178 3.6357 11.6267 3.01348C11.2356 2.39126 10.72 1.89348 10.08 1.52015C9.44 1.14682 8.74667 0.96015 8 0.96015C6.89778 0.96015 5.92 1.33348 5.06667 2.08015Z" fill="#717275"/>
</svg>
